<?xml version="1.0" encoding="UTF-8"?>
<svg xmlns="http://www.w3.org/2000/svg" xmlns:xlink="http://www.w3.org/1999/xlink" width="20px" height="20px" viewBox="0 0 20 20" version="1.1">
<g id="surface1">
<path style=" stroke:none;fill-rule:nonzero;fill:rgb(0%,0%,0%);fill-opacity:1;" d="M 17.988281 17.332031 L 16.839844 4.363281 C 16.820312 4.105469 16.601562 3.914062 16.34375 3.914062 L 13.917969 3.914062 C 13.914062 1.753906 12.15625 0 10 0 C 7.84375 0 6.085938 1.753906 6.082031 3.914062 L 3.65625 3.914062 C 3.402344 3.914062 3.1875 4.105469 3.160156 4.363281 L 2.011719 17.332031 C 2.011719 17.351562 2.011719 17.363281 2.011719 17.378906 C 2.011719 18.824219 3.339844 20 4.96875 20 L 15.03125 20 C 16.660156 20 17.988281 18.824219 17.988281 17.378906 C 17.988281 17.363281 17.988281 17.351562 17.988281 17.332031 Z M 10 0.992188 C 11.609375 0.992188 12.917969 2.300781 12.921875 3.914062 L 7.078125 3.914062 C 7.082031 2.300781 8.390625 0.992188 10 0.992188 Z M 15.03125 19.003906 L 4.96875 19.003906 C 3.894531 19.003906 3.015625 18.285156 3.003906 17.394531 L 4.113281 4.90625 L 6.082031 4.90625 L 6.082031 6.648438 C 6.082031 6.921875 6.308594 7.144531 6.582031 7.144531 C 6.855469 7.144531 7.078125 6.921875 7.078125 6.648438 L 7.078125 4.90625 L 12.921875 4.90625 L 12.921875 6.648438 C 12.921875 6.921875 13.144531 7.144531 13.417969 7.144531 C 13.691406 7.144531 13.917969 6.921875 13.917969 6.648438 L 13.917969 4.90625 L 15.886719 4.90625 L 16.996094 17.398438 C 16.984375 18.285156 16.105469 19.003906 15.03125 19.003906 Z M 15.03125 19.003906 "/>
</g>
</svg>
